<?xml version="1.0" standalone="no"?>
<!DOCTYPE svg PUBLIC "-//W3C//DTD SVG 20010904//EN"
 "http://www.w3.org/TR/2001/REC-SVG-20010904/DTD/svg10.dtd">
<svg version="1.0" xmlns="http://www.w3.org/2000/svg"
 width="96.000000pt" height="96.000000pt" viewBox="0 0 96.000000 96.000000"
 preserveAspectRatio="xMidYMid meet">

<g transform="translate(0.000000,96.000000) scale(0.100000,-0.100000)"
fill="#000000" stroke="none">
<path d="M448 872 c-21 -11 -48 -17 -66 -14 -23 3 -34 -2 -51 -23 -11 -15 -21
-36 -21 -46 0 -11 -5 -19 -11 -19 -8 0 -10 -16 -6 -52 7 -57 27 -91 27 -45 0
32 59 97 88 97 48 0 84 -14 92 -35 5 -12 16 -25 24 -28 24 -9 20 -21 -14 -41
-17 -9 -28 -21 -25 -26 11 -17 7 -120 -5 -135 -10 -12 -9 -15 6 -15 18 -1 18
-2 2 -13 -11 -9 -14 -18 -7 -28 14 -22 11 -25 -25 -27 -24 -2 -38 3 -45 15 -6
10 -11 12 -11 6 0 -9 -7 -10 -25 -3 -20 8 -27 6 -35 -10 -6 -11 -21 -20 -34
-20 -28 0 -156 -43 -194 -65 -29 -17 -92 -101 -92 -122 0 -6 -6 -14 -12 -16
-10 -4 -9 -8 2 -17 11 -9 12 -13 3 -17 -9 -3 -13 -31 -13 -89 l0 -84 480 0
480 0 0 103 c0 100 -1 104 -35 158 -38 61 -106 105 -205 135 -65 19 -88 56
-66 108 8 19 12 37 9 40 -3 3 2 45 12 94 16 85 16 92 0 126 -41 87 -159 143
-227 108z m-48 -472 c11 -11 34 -23 50 -27 17 -3 30 -10 30 -15 0 -5 5 -6 12
-2 6 4 17 -1 24 -11 10 -14 22 -17 54 -12 22 3 40 3 40 1 0 -7 -124 -134 -131
-134 -4 0 -10 9 -14 19 -3 10 -17 30 -31 44 -32 33 -79 157 -59 157 3 0 14 -9
25 -20z"/>
<path d="M388 661 c7 -4 12 -12 11 -17 -4 -23 2 -34 19 -34 10 0 22 3 25 7 10
9 -33 53 -52 53 -12 0 -13 -2 -3 -9z"/>
<path d="M390 518 c0 -9 5 -20 11 -23 17 -11 18 -2 3 19 -12 17 -14 17 -14 4z"/>
</g>
</svg>
